<?xml version="1.0" encoding="UTF-8"?>
<svg width="20px" height="20px" viewBox="0 0 20 20" version="1.1" xmlns="http://www.w3.org/2000/svg" xmlns:xlink="http://www.w3.org/1999/xlink">
    <title>copy_blue</title>
    <g id="copy" stroke="none" stroke-width="1" fill="none" fill-rule="evenodd">
        <g id="Artboard" transform="translate(-1028.000000, -479.000000)" fill="#389FD6" fill-rule="nonzero">
            <g id="copy_blue" transform="translate(1028.000000, 479.000000)">
                <rect id="Rectangle" opacity="0" x="0" y="0" width="20" height="20"></rect>
                <path d="M5.35078125,5.63945312 L5.35078125,16.2644531 L13.4757812,16.2644531 L13.4757812,17.8269531 L4.56953125,17.8269531 C4.14539062,17.8269531 3.80023437,17.4889844 3.78867187,17.0675781 L3.78835938,17.0457031 L3.78835938,5.63945312 L5.35085938,5.63945312 L5.35078125,5.63945312 Z M11.5846094,2.20078125 C11.7934305,2.20078125 11.993553,2.28449417 12.1403125,2.43304688 L16.9932031,7.34476562 C17.137665,7.49099787 17.2186719,7.68827254 17.2186719,7.89382813 L17.2186719,14.2038281 C17.2186719,14.6353125 16.8689063,14.9850781 16.4374219,14.9850781 L7.35234375,14.9850781 C6.92085937,14.9850781 6.57109375,14.6353125 6.57109375,14.2038281 L6.57109375,2.98203125 C6.57109375,2.55054688 6.92085937,2.20078125 7.35234375,2.20078125 L11.5846094,2.20078125 Z M10.944375,3.76328125 L8.13351562,3.76328125 L8.13351562,13.4225 L15.6561719,13.4225 L15.6561719,8.763125 L11.725625,8.763125 C11.3014062,8.763125 10.95625,8.42507813 10.9446875,8.00375 L10.944375,7.981875 L10.944375,3.76328125 L10.944375,3.76328125 Z M12.506875,5.02703125 L12.5067969,7.20054687 L14.6542188,7.20054687 L12.506875,5.02710938 L12.506875,5.02703125 Z" id="Shape"></path>
            </g>
        </g>
    </g>
</svg>