<?xml version="1.0" encoding="UTF-8"?>
<svg width="20px" height="20px" viewBox="0 0 20 20" version="1.1" xmlns="http://www.w3.org/2000/svg" xmlns:xlink="http://www.w3.org/1999/xlink">
    <title>insert_blue_dark</title>
    <g id="insert_dark" stroke="none" stroke-width="1" fill="none" fill-rule="evenodd">
        <g id="Artboard" transform="translate(-928.000000, -512.000000)" fill="#3592C4" fill-rule="nonzero">
            <g id="insert_blue_dark" transform="translate(928.000000, 512.000000)">
                <rect id="Rectangle" opacity="0" x="0" y="0" width="20" height="20"></rect>
                <path d="M11.53,3.3125 L3.155,3.3125 C2.605,3.3125 2.155,3.7625 2.155,4.3125 L2.155,8.1875 C2.155,8.7375 2.605,9.1875 3.155,9.1875 L11.53,9.1875 C12.08,9.1875 12.53,8.7375 12.53,8.1875 L12.53,4.3125 C12.53,3.7625 12.08,3.3125 11.53,3.3125 L11.53,3.3125 Z M10.9675,7.625 L3.7175,7.625 L3.7175,4.875 L10.9675,4.875 L10.9675,7.625 Z M11.53,10.8125 L3.155,10.8125 C2.605,10.8125 2.155,11.2625 2.155,11.8125 L2.155,15.6875 C2.155,16.2375 2.605,16.6875 3.155,16.6875 L11.53,16.6875 C12.08,16.6875 12.53,16.2375 12.53,15.6875 L12.53,11.8125 C12.53,11.2625 12.08,10.8125 11.53,10.8125 Z M10.9675,15.125 L3.7175,15.125 L3.7175,12.375 L10.9675,12.375 L10.9675,15.125 Z M16.676875,6.71875 L14.226875,9.48125 C13.964375,9.775 13.964375,10.225 14.226875,10.51875 L16.676875,13.28125 L17.845625,12.24375 L15.851875,10 L17.845625,7.75625 L16.676875,6.71875 Z" id="Shape"></path>
            </g>
        </g>
    </g>
</svg>