<?xml version="1.0" standalone="no"?><!DOCTYPE svg PUBLIC "-//W3C//DTD SVG 1.1//EN" "http://www.w3.org/Graphics/SVG/1.1/DTD/svg11.dtd"><svg t="1700726365372" class="icon" viewBox="0 0 1024 1024" version="1.1" xmlns="http://www.w3.org/2000/svg" p-id="21267" width="16" height="16" xmlns:xlink="http://www.w3.org/1999/xlink"><path d="M512 818.773333a320 320 0 1 1 320-320 320 320 0 0 1-320 320z m0-554.666666a234.666667 234.666667 0 1 0 234.666667 234.666666 235.093333 235.093333 0 0 0-234.666667-234.666666zM701.013333 836.693333H322.986667a24.746667 24.746667 0 0 0-24.32 24.32V896a24.32 24.32 0 0 0 24.32 24.32h378.026666A24.32 24.32 0 0 0 725.333333 896v-36.693333a24.746667 24.746667 0 0 0-24.32-24.32zM615.68 938.666667H408.32a24.746667 24.746667 0 0 0-24.32 24.32v36.693333a24.746667 24.746667 0 0 0 24.32 24.32h207.36a24.746667 24.746667 0 0 0 24.32-24.32v-36.693333a24.746667 24.746667 0 0 0-24.32-24.32z" p-id="21268" fill="#FFFFFF"></path><path d="M512 0a42.666667 42.666667 0 0 0-42.666667 42.666667v85.333333a42.666667 42.666667 0 0 0 85.333334 0V42.666667a42.666667 42.666667 0 0 0-42.666667-42.666667zM834.56 133.546667a42.666667 42.666667 0 0 0-30.293333 12.8l-60.16 60.16a42.666667 42.666667 0 0 0 0 60.16 42.666667 42.666667 0 0 0 30.293333 12.8 42.666667 42.666667 0 0 0 29.866667-12.8l60.586666-60.16a42.666667 42.666667 0 0 0-30.293333-72.96zM968.106667 456.106667h-85.333334a42.666667 42.666667 0 0 0 0 85.333333h85.333334a42.666667 42.666667 0 0 0 0-85.333333zM189.44 133.546667a42.666667 42.666667 0 0 0-30.293333 72.96l60.586666 60.16a42.666667 42.666667 0 0 0 29.866667 12.8 42.666667 42.666667 0 0 0 30.293333-72.96L219.733333 146.346667a42.666667 42.666667 0 0 0-30.293333-12.8zM141.226667 456.106667h-85.333334a42.666667 42.666667 0 0 0 0 85.333333h85.333334a42.666667 42.666667 0 0 0 0-85.333333z" p-id="21269" fill="#FFFFFF"></path></svg>